<?xml version="1.0" encoding="UTF-8"?> <svg xmlns="http://www.w3.org/2000/svg" viewBox="0 0 360 360"><defs><style>.cls-1{fill:#1b778c;}.cls-2{fill:#fff;fill-rule:evenodd;}</style></defs><g id="Icons"><rect class="cls-1" width="360" height="360"></rect><path class="cls-2" d="M221.87,144.18c-7.07.61-16.27.12-23.57.12-17.83,0-18.35,1.71-16.64-6.13,2.72-.63,37-.63,40.41,0l-.2,6.06ZM88.56,136.72c-.85-2.61-.91-56.25-.06-59.1,1.91-.19,3.73-.12,5.66-.15,4.62-.07,3.84-.1,4.6.89s.87,55.1-.07,58.47l-10.13-.11Zm17.23-43.95c3.45-1.1,37.94-.38,44.64-.38,13.13,0,31.12-1.59,42,2.52,13.66,5.17,22.7,17.71,23.85,32.55.43,5.63-1.47,4-7,4-6,0-16.26.61-21.74-.15-3.46-6.82,1.39-9.36-14-9.35-9.6,0-63.17.51-68-.32l.21-28.86Zm42.27-10.32c3-.85,11.51-.33,15.52-.33,6.26,0,13.62-1.41,12.43,2.53-.68,2.22-11.49,1.32-15.59,1.32-11.6,0-13.14,1.32-12.36-3.52Zm16-7.08c-6,2.06-5.76-3.1-4.89-9.66,1.84-.87,3.33-.71,5.34-.23.33,2.78.86,7.74-.45,9.89ZM151.48,53.59c7.89,0,15.79,0,23.68,0,7.07,0,4.94.57,8.65-3.24,2.07-2.12,5.89-2.21,8.57-.65,5.81,3.38,4.88,12-2.22,13.88-4.79,1.3-6.73-2.07-8.16-3.5-2.11-2.12-6.14-1.36-10-1.36-7.89,0-15.79,0-23.68,0s-4.47-.23-8.45,3.45c-7.93,7.32-19.69-9.78-6.21-13.21,4.61-1.18,5.93,1,7.83,3.27s6.8,1.35,10,1.35Zm-69.8,86c0,2.78,1.65,3.71,4.57,3.71,17,0,19.38,1.82,19.35-6.32,0-7.92-1-8.84,2.22-8.84h70c2.74,0,2.94.45,2.61,3.13-3,.57-5.43.34-5.43,4.11,0,6.1-.51,8.76.49,14.43a6.31,6.31,0,0,0,3.39.94h45.23c3.1,0,4.34-.73,4.34-3.8,0-5.35.43-9.5-.4-14.45-1.3-.76-2.51-.9-4.66-1.14-1.41-3.74,0-8.77-3.73-17.83a45.14,45.14,0,0,0-8.25-13.31c-10.23-12.39-25.82-13.06-28.75-14.31-.6-4.14.82-7.34-1.58-9.59-2.49-1.22-6.91-.31-9.82-.92l0-9.68c5.06-2.26,7.37.7,8.67,1.78,8,6.69,22.79.79,22.79-11.56,0-9.41-11.61-17.66-21.79-11.61-3,1.78-2,3.2-6.14,3.07l-26.26,0c-4.1,0-3.19-1.51-5.81-3.23-6-3.95-14.92-1.65-19.41,4.6-6.29,8.74,1.22,21.53,11.35,21.53,12.48,0,5.31-6.26,17.84-5a38.62,38.62,0,0,1-.2,9.79c-2.82,1.32-6.15-.06-9.54,1-3.55,4.54,1.18,9.86-3.89,9.86-6.29,0-28.42.45-33-.24-1.42-6.1,2.68-14.66-4.9-14.66H86.25c-3,0-4.57.83-4.57,3.78v64.71Z"></path><path class="cls-2" d="M134.1,176.91c-.49-4.47,4.84-7.85,9.4-7.3,3.81.46,7.74,5.42,9.85,7.53,5.83,5.83,11.28,11.27,17.1,17.1,9.75,9.75,5.69,7.36,26.8,7.36,2.59,0,5.86.18,8.38,0,3.69-.3,5.14-3.46,9.15-8.18,12-14.06-24.15-3.12-29.81-8.44-3.26-3.06.2-9.58,4-10.6,1.59-.43,48.29-1.15,50.72.66L274.1,209.5c4.77,4.69,4.16,5.65.13,9.67l-17.1,17.1c-7.35,7.39-6.12,4.52-23.38-12.23-7.61-7.4-3.58-5.48-20.2-5.48l-34.74,0c-5.82-.25-6.66-2.38-10.84-6.56-2.57-2.58-33.55-32.22-33.87-35.07Zm-6.42-.53c0,5.21,3.6,8.21,5.88,10.55l24.23,24.18c6.63,6.36,11.15,13.47,18.92,13.63,4.38.09,46.45-.39,48.21.24,1.15.41,14.41,14,16.58,16.05,7.85,7.36,11.34,8.62,20.16-.24L278,224.57c9.57-10,6.84-13.54-2.56-22.78l-31.06-31c-4.49-4.29-10.3-3.08-17.71-3.08-6.51,0-36.16-.54-40.19.62-4.22,1.23-9,6.33-9,11.76,0,18.67,16.81,9.93,28.69,12.55-.38,2.3-.92,2.57-3.71,2.57H182c-2.81,0-22.24-20.67-25.43-23.87-3.62-3.64-7.77-9.53-16.47-8-6.67,1.17-12.41,5.49-12.41,13.08Z"></path></g></svg> 