<?xml version="1.0" encoding="UTF-8"?> <svg xmlns="http://www.w3.org/2000/svg" viewBox="0 0 360 360"><defs><style>.cls-1{fill:#1b778c;}.cls-2{fill:none;stroke:#fff;stroke-linecap:round;stroke-linejoin:round;stroke-width:8px;}</style></defs><g id="Icons"><rect class="cls-1" width="360" height="360"></rect><line class="cls-2" x1="179.5" y1="39.5" x2="179.5" y2="58.55"></line><path class="cls-2" d="M160.45,198.4v22h38.1v-22a61.9,61.9,0,1,0-38.1,0Z"></path><line class="cls-2" x1="260.45" y1="139.5" x2="279.5" y2="139.5"></line><line class="cls-2" x1="98.55" y1="139.5" x2="79.5" y2="139.5"></line><polyline class="cls-2" points="165.21 220.45 165.21 239.5 193.79 239.5 193.79 220.45"></polyline><line class="cls-2" x1="122.36" y1="82.36" x2="103.31" y2="63.31"></line><line class="cls-2" x1="236.64" y1="196.64" x2="255.69" y2="215.69"></line><line class="cls-2" x1="122.36" y1="196.64" x2="103.31" y2="215.69"></line><line class="cls-2" x1="236.64" y1="82.36" x2="255.69" y2="63.31"></line><polygon class="cls-2" points="179.5 182.36 155.69 144.26 203.31 144.26 179.5 182.36"></polygon><line class="cls-2" x1="179.5" y1="182.36" x2="179.5" y2="201.4"></line><line class="cls-2" x1="160.45" y1="206.17" x2="198.55" y2="206.17"></line></g></svg> 