<?xml version="1.0" encoding="UTF-8"?> <svg xmlns="http://www.w3.org/2000/svg" viewBox="0 0 360 360"><defs><style>.cls-1{fill:#1b778c;}.cls-2{fill:none;stroke:#fff;stroke-linecap:round;stroke-linejoin:round;stroke-width:6px;}</style></defs><g id="Icons"><rect class="cls-1" width="360" height="360"></rect><line class="cls-2" x1="99.81" y1="140.19" x2="99.81" y2="116.97"></line><line class="cls-2" x1="99.81" y1="209.87" x2="99.81" y2="186.65"></line><polyline class="cls-2" points="99.81 70.52 99.81 56 221.74 56 221.74 236 99.81 236 99.81 221.48"></polyline><line class="cls-2" x1="99.81" y1="175.03" x2="99.81" y2="151.81"></line><line class="cls-2" x1="99.81" y1="105.35" x2="99.81" y2="82.13"></line><path class="cls-2" d="M274,207H239.16V73.42A17.42,17.42,0,0,1,256.58,56h0A17.42,17.42,0,0,1,274,73.42Z"></path><polyline class="cls-2" points="239.16 206.97 256.58 236 274 206.97"></polyline><line class="cls-2" x1="239.16" y1="79.23" x2="274" y2="79.23"></line><line class="cls-2" x1="239.16" y1="90.84" x2="274" y2="90.84"></line><line class="cls-2" x1="256.58" y1="90.84" x2="256.58" y2="206.97"></line><path class="cls-2" d="M105.61,82.13h-5.8A5.81,5.81,0,0,1,94,76.32h0a5.81,5.81,0,0,1,5.81-5.8h5.8a5.81,5.81,0,0,1,5.81,5.8h0A5.81,5.81,0,0,1,105.61,82.13Z"></path><path class="cls-2" d="M105.61,117h-5.8A5.81,5.81,0,0,1,94,111.16h0a5.81,5.81,0,0,1,5.81-5.81h5.8a5.81,5.81,0,0,1,5.81,5.81h0A5.81,5.81,0,0,1,105.61,117Z"></path><path class="cls-2" d="M105.61,151.81h-5.8A5.81,5.81,0,0,1,94,146h0a5.81,5.81,0,0,1,5.81-5.81h5.8a5.81,5.81,0,0,1,5.81,5.81h0A5.81,5.81,0,0,1,105.61,151.81Z"></path><path class="cls-2" d="M105.61,186.65h-5.8A5.81,5.81,0,0,1,94,180.84h0A5.81,5.81,0,0,1,99.81,175h5.8a5.81,5.81,0,0,1,5.81,5.81h0A5.81,5.81,0,0,1,105.61,186.65Z"></path><path class="cls-2" d="M105.61,221.48h-5.8a5.81,5.81,0,0,1-5.81-5.8h0a5.81,5.81,0,0,1,5.81-5.81h5.8a5.81,5.81,0,0,1,5.81,5.81h0A5.81,5.81,0,0,1,105.61,221.48Z"></path><polyline class="cls-2" points="204.32 96.64 204.32 79.23 128.84 79.23 128.84 137.29 204.32 137.29 204.32 119.87"></polyline><line class="cls-2" x1="140.45" y1="177.94" x2="192.71" y2="177.94"></line><line class="cls-2" x1="134.65" y1="195.35" x2="198.52" y2="195.35"></line><line class="cls-2" x1="128.84" y1="212.77" x2="204.32" y2="212.77"></line><line class="cls-2" x1="204.32" y1="108.26" x2="204.32" y2="108.26"></line></g></svg> 