<?xml version="1.0" encoding="UTF-8"?> <svg xmlns="http://www.w3.org/2000/svg" id="a" viewBox="0 0 675.03 55.06"><defs><style>.b{fill:#3fb8b0;}</style></defs><g><path class="b" d="M0,27.49C0,10.68,12.75,0,28.29,0c11.08,0,18.01,5.58,21.99,11.87l-9.4,5.1c-2.39-3.75-6.93-6.93-12.59-6.93-9.64,0-16.66,7.41-16.66,17.45s7.01,17.45,16.66,17.45c4.7,0,9.16-2.07,11.31-4.06v-6.37h-14.02v-9.88h25.34v20.4c-5.42,6.06-12.99,10.04-22.63,10.04C12.75,55.06,0,44.23,0,27.49Z"></path><path class="b" d="M89.97,54.03l-10.44-18.89h-8.29v18.89h-11.32V.88h24.86c11.08,0,17.85,7.25,17.85,17.13s-5.9,14.42-11.63,15.78l11.95,20.24h-12.99Zm1.11-36.02c0-4.46-3.43-7.17-7.97-7.17h-11.87v14.34h11.87c4.54,0,7.97-2.71,7.97-7.17Z"></path><path class="b" d="M108.63,27.49c0-16.02,11.71-27.49,27.73-27.49s27.81,11.47,27.81,27.49-11.71,27.49-27.81,27.49-27.73-11.47-27.73-27.49Zm43.91,0c0-9.96-6.37-17.45-16.18-17.45s-16.1,7.49-16.1,17.45,6.3,17.45,16.1,17.45,16.18-7.57,16.18-17.45Z"></path><path class="b" d="M172.14,32.83V.88h11.47v31.56c0,7.41,4.3,12.51,12.51,12.51s12.43-5.1,12.43-12.51V.88h11.55v31.87c0,13.23-7.81,22.23-23.99,22.23s-23.99-9.08-23.99-22.15Z"></path><path class="b" d="M267.22,54.03l-25.34-34.66V54.03h-11.31V.88h11.63l24.62,33.39V.88h11.31V54.03h-10.92Z"></path><path class="b" d="M288.66,54.03V.88h20.96c16.65,0,28.21,10.6,28.21,26.62s-11.55,26.54-28.21,26.54h-20.96Zm37.61-26.54c0-9.4-5.74-16.65-16.65-16.65h-9.64V44.07h9.64c10.52,0,16.65-7.57,16.65-16.57Z"></path><path class="b" d="M346.84,54.03V.88h23.67c9.24,0,14.9,5.58,14.9,13.55,0,6.69-4.46,11.16-9.32,12.19,5.66,.88,10.36,6.69,10.36,13.07,0,8.53-5.66,14.34-15.38,14.34h-24.22Zm31.71-38.65c0-4.78-3.19-8.61-9.16-8.61h-15.94V23.9h15.94c5.98,0,9.16-3.66,9.16-8.53Zm1.04,23.59c0-4.86-3.35-9.16-9.88-9.16h-16.26v18.33h16.26c6.21,0,9.88-3.5,9.88-9.16Z"></path><path class="b" d="M427.73,54.03l-13.55-21.12h-10.6v21.12h-6.61V.88h21.35c9.72,0,16.66,6.22,16.66,16.02s-6.54,14.82-13.79,15.46l14.34,21.67h-7.81Zm.4-37.13c0-5.98-4.3-10.12-10.6-10.12h-13.95V27.09h13.95c6.3,0,10.6-4.22,10.6-10.2Z"></path><path class="b" d="M445.43,54.03V.88h34.82V6.77h-28.21V23.9h27.65v5.9h-27.65v18.33h28.21v5.9h-34.82Z"></path><path class="b" d="M575.33,54.03l-20.16-23.91-5.34,6.06v17.85h-6.61V.88h6.61V28.37L573.33,.88h8.29l-22.15,25.26,24.07,27.89h-8.21Z"></path><path class="b" d="M591.11,54.03V.88h34.82V6.77h-28.21V23.9h27.65v5.9h-27.65v18.33h28.21v5.9h-34.82Z"></path><path class="b" d="M667.22,54.03l-13.55-21.12h-10.6v21.12h-6.61V.88h21.35c9.72,0,16.66,6.22,16.66,16.02s-6.54,14.82-13.79,15.46l14.34,21.67h-7.81Zm.4-37.13c0-5.98-4.3-10.12-10.6-10.12h-13.95V27.09h13.95c6.3,0,10.6-4.22,10.6-10.2Z"></path></g><polygon class="b" points="528.7 54.03 536.27 54.03 514.84 .88 506.63 .88 485.27 54.03 492.84 54.03 496.62 44.56 496.62 44.56 499.52 36.34 499.46 36.34 500.05 34.85 500.05 34.85 500.05 34.85 510.77 7.73 522.01 36.34 521.96 36.34 525.21 45.28 525.21 45.28 528.7 54.03"></polygon><circle class="b" cx="510.92" cy="43.53" r="6.38"></circle></svg> 