<?xml version="1.0" encoding="UTF-8"?> <svg xmlns="http://www.w3.org/2000/svg" viewBox="0 0 360 360"><defs><style>.cls-1{fill:#1b778c;}.cls-2{fill:none;stroke:#fff;stroke-linecap:round;stroke-linejoin:round;stroke-width:6px;}</style></defs><g id="Icons"><rect class="cls-1" width="360" height="360"></rect><line class="cls-2" x1="175" y1="42" x2="175" y2="80.71"></line><polyline class="cls-2" points="175 42 210.48 42 210.48 61.35 175 61.35"></polyline><polygon class="cls-2" points="236.29 151.68 175 80.71 113.71 151.68 129.84 151.68 175 100.06 220.16 151.68 236.29 151.68"></polygon><polyline class="cls-2" points="197.58 106.52 262.1 106.52 275 138.77 239.52 138.77"></polyline><polyline class="cls-2" points="110.48 138.77 75 138.77 87.9 106.52 152.42 106.52"></polyline><line class="cls-2" x1="220.16" y1="196.84" x2="220.16" y2="151.68"></line><polyline class="cls-2" points="220.16 222.65 220.16 242 129.84 242 129.84 151.68"></polyline><polyline class="cls-2" points="81.45 138.77 81.45 235.55 129.84 235.55"></polyline><polyline class="cls-2" points="220.16 235.55 268.55 235.55 268.55 138.77"></polyline><circle class="cls-2" cx="175" cy="151.68" r="19.35"></circle><polyline class="cls-2" points="175 145.23 175 154.9 178.23 158.13"></polyline><path class="cls-2" d="M158.87,242V209.74a12.91,12.91,0,0,1,12.9-12.9h6.46a12.91,12.91,0,0,1,12.9,12.9V242"></path><rect class="cls-2" x="94.35" y="171.03" width="22.58" height="19.35"></rect><rect class="cls-2" x="233.06" y="171.03" width="22.58" height="19.35"></rect><line class="cls-2" x1="220.16" y1="209.74" x2="220.16" y2="209.74"></line></g></svg> 