<?xml version="1.0" encoding="UTF-8"?> <svg xmlns="http://www.w3.org/2000/svg" viewBox="0 0 360 360"><defs><style>.cls-1{fill:#1b778c;}.cls-2{fill:none;stroke:#fff;stroke-linecap:round;stroke-linejoin:round;stroke-width:7px;}</style></defs><g id="Icons"><rect class="cls-1" width="360" height="360"></rect><path class="cls-2" d="M145.67,250V154.76h28.57a19.05,19.05,0,0,0,19-19H98.05a19.05,19.05,0,0,0-19,19V188.1a14.28,14.28,0,0,0,14.29,14.28h4.76"></path><path class="cls-2" d="M121.86,121.43h0a14.29,14.29,0,0,1-14.29-14.29v-4.76A14.28,14.28,0,0,1,121.86,88.1h0a14.28,14.28,0,0,1,14.28,14.28v4.76A14.28,14.28,0,0,1,121.86,121.43Z"></path><line class="cls-2" x1="121.86" y1="250" x2="121.86" y2="192.86"></line><line class="cls-2" x1="98.05" y1="154.76" x2="98.05" y2="250"></line><path class="cls-2" d="M136.14,69.05V59.52A9.53,9.53,0,0,1,145.67,50H269.48A9.52,9.52,0,0,1,279,59.52V164.29a9.52,9.52,0,0,1-9.52,9.52H164.71"></path></g></svg> 