<?xml version="1.0" encoding="UTF-8"?> <svg xmlns="http://www.w3.org/2000/svg" xmlns:xlink="http://www.w3.org/1999/xlink" version="1.1" id="Ebene_1" x="0px" y="0px" width="360px" height="194px" viewBox="0 0 360 194" style="enable-background:new 0 0 360 194;" xml:space="preserve"> <style type="text/css"> .st0{fill:#43B8B0;} .st1{fill:none;stroke:#3FB8B0;stroke-width:2;stroke-miterlimit:10;} .st2{fill:#FFFFFF;} </style> <line class="st1" x1="71.2" y1="95.3" x2="0" y2="95.3"></line> <g> <g> <path class="st0" d="M178,191.4c2.5,0.1,4.9-0.1,7-0.6c0.1,0,0.2,0,0.3,0c5.9-0.8,11.9-3,15.4-7.2c6-12.7-8.5-6.8-10.2-15.6 c-1.2-6.2,3.5-8.3,6.4-8.9h46v-44.3c-0.1-1.2-1-9.7-9.2-8.1c-7.1,1.4-4.6,11.2-10.2,11.6c-1.3,0.1-3-0.3-5.4-1.4 c-4.1-3.5-6.4-9.5-7.2-15.4c0-0.1,0-0.2,0-0.3c-0.4-2.1-0.7-4.5-0.6-7c0.3-6.8,2.5-14.5,7.5-18.6c12.7-6,6.8,8.5,15.6,10.2 c8.8,1.7,9.3-8.5,9.3-8.5l0.3-44.3l-43.8-0.1c0,0-10.2-0.5-8.5-9.3c1.7-8.8,16.2-2.9,10.2-15.6c-4.1-4.9-11.8-7.2-18.6-7.5 c-2.5-0.1-4.9,0.1-7,0.6c-0.1,0-0.2,0-0.3,0c-5.9,0.8-11.9,3-15.4,7.2c-6,12.7,8.5,6.8,10.2,15.6c1.3,6.6-4.1,8.5-6.9,9.1h-45.8 v46.4c0.6,2.9,2.6,7.9,9,6.7c8.8-1.7,2.9-16.2,15.6-10.2c4.1,3.5,6.4,9.5,7.2,15.4c0,0.1,0,0.2,0,0.3c0.4,2.1,0.7,4.5,0.6,7 c-0.3,6.8-2.5,14.5-7.5,18.6c-2.4,1.1-4.1,1.5-5.4,1.4c-5.6-0.4-3.1-10.3-10.2-11.6c-8.8-1.7-9.3,8.5-9.3,8.5l-0.1,43.7h44 c0,0,10.2,0.5,8.5,9.3c-1.7,8.8-16.2,2.9-10.2,15.6C163.5,188.8,171.2,191.1,178,191.4L178,191.4z"></path> </g> </g> <g> <defs> <rect id="SVGID_1_" x="-414" y="-19" width="414" height="311"></rect> </defs> <clipPath id="SVGID_00000088131466343455319130000007141931008572537246_"> <use xlink:href="#SVGID_1_" style="overflow:visible;"></use> </clipPath> <g style="clip-path:url(#SVGID_00000088131466343455319130000007141931008572537246_);"> <image style="overflow:visible;" width="1011" height="203" transform="matrix(1 0 0 1 -701.5 -6.1581)"> </image> </g> </g> <g> <path class="st2" d="M190.4,51.8l-20.7,0c-0.3,0-0.6,0.1-0.8,0.3l0,0c-0.2,0.2-0.3,0.5-0.3,0.8l0,4.1c0,4.9,3.1,9.2,7.7,10.8 l0,31.2c-0.1,0.2-0.2,0.4-0.2,0.6v5h-8.9c-0.8,0-1.4,0.6-1.5,1.4c0,0.5-0.5,13,1.1,20c1.5,6.5,9.2,15.8,13.1,15.9 c1.5,0,3.6-1.3,5.6-3.4c3.3-3.3,6.6-8.5,7.6-12.6c1.6-7,1.1-19.4,1.1-20c0-0.8-0.7-1.4-1.5-1.4H184v-5c0-0.2-0.1-0.4-0.2-0.6V67.8 c4.5-1.6,7.7-5.9,7.7-10.8l0-4.1C191.5,52.3,191,51.8,190.4,51.8z M190.3,125.3c-1.4,6.2-8.5,13.6-10.2,13.6 c-1.7-0.1-8.9-7.5-10.3-13.6c-1.2-5.3-1.2-14.3-1.1-17.8h7.2l0,2.5c0,0.7,1.9,9.7,3.3,10.6c0.5,0.4,1.2,0.4,1.7,0 c1.4-1,3.2-9.9,3.2-10.6l0-2.5h7.2C191.4,111,191.5,120,190.3,125.3z M181.4,105.3c-0.2,0.2-0.3,0.5-0.3,0.8l0,4 c0,0.6-0.6,2.9-1.1,5c-0.6-2.1-1.1-4.4-1.1-5l0-3.9c0-0.3-0.1-0.5-0.2-0.7v-4.6c0.9-0.1,1.8-0.1,2.7,0L181.4,105.3z M189.3,57 c0,4.2-2.8,7.8-6.9,8.9c-0.5,0.1-0.8,0.6-0.8,1.1v31.2c-1-0.1-2.1-0.1-3.1,0l0-31.2c0-0.5-0.3-0.9-0.8-1.1c-4-1.1-6.8-4.7-6.9-8.9 l0-3l18.4,0L189.3,57z"></path> <path class="st2" d="M173.1,57.5c0.3,3.6,3.3,6.4,6.9,6.4c0,0,0,0,0,0c1.9,0,3.6-0.8,4.9-2c1.1-1.1,1.9-2.7,2-4.4 c0-0.3-0.1-0.6-0.3-0.8c-0.2-0.2-0.5-0.4-0.8-0.4l-11.6,0c-0.3,0-0.6,0.1-0.8,0.4C173.2,56.9,173.1,57.2,173.1,57.5z M184.5,58.5 c-0.6,1.9-2.4,3.2-4.5,3.2c-2,0-3.8-1.3-4.4-3.2L184.5,58.5z"></path> </g> </svg> 