<?xml version="1.0" encoding="UTF-8"?> <svg xmlns="http://www.w3.org/2000/svg" xmlns:xlink="http://www.w3.org/1999/xlink" version="1.1" id="Ebene_1" x="0px" y="0px" viewBox="0 0 360 120" style="enable-background:new 0 0 360 120;" xml:space="preserve"> <style type="text/css"> .st0{fill:#3FB8B0;} </style> <path class="st0" d="M0,97c0-9,6.8-14.7,15.1-14.7c4.8-0.2,9.2,2.3,11.7,6.3l-5,2.7c-1.5-2.3-4-3.7-6.7-3.7c-5.2,0-8.9,4-8.9,9.3 s3.7,9.3,8.9,9.3c2.2,0,4.3-0.8,6-2.2v-3.4h-7.5v-5.3h13.5v10.9c-3,3.5-7.5,5.4-12.1,5.3C6.8,111.7,0,105.9,0,97z"></path> <path class="st0" d="M48,111.1L42.4,101H38v10.1h-6V82.8h13.2c5.9,0,9.5,3.9,9.5,9.1c0,5-3.1,7.7-6.2,8.4l6.4,10.8 C54.9,111.1,48,111.1,48,111.1z M48.6,91.9c0-2.4-1.8-3.8-4.2-3.8H38v7.7h6.3C46.8,95.8,48.6,94.3,48.6,91.9L48.6,91.9z"></path> <path class="st0" d="M57.9,97c0-8.5,6.2-14.7,14.8-14.7S87.6,88.4,87.6,97s-6.2,14.6-14.8,14.6S57.9,105.5,57.9,97z M81.3,97 c0-5.3-3.4-9.3-8.6-9.3s-8.6,4-8.6,9.3s3.3,9.3,8.6,9.3S81.3,102.2,81.3,97z"></path> <path class="st0" d="M91.8,99.8v-17h6.1v16.8c0,4,2.3,6.7,6.7,6.7s6.6-2.7,6.6-6.7V82.8h6.2v17c0,7.1-4.2,11.9-12.8,11.9 S91.8,106.8,91.8,99.8z"></path> <path class="st0" d="M142.5,111.1L129,92.6v18.5h-6V82.8h6.2l13.1,17.8V82.8h6v28.3C148.3,111.1,142.5,111.1,142.5,111.1z"></path> <path class="st0" d="M154,111.1V82.8h11.2c8.9,0,15,5.7,15,14.2s-6.2,14.2-15,14.2L154,111.1L154,111.1z M174,97 c0-5-3.1-8.9-8.9-8.9H160v17.7h5.1c4.7,0.2,8.7-3.4,8.9-8.1C174,97.5,174,97.2,174,97z"></path> <path class="st0" d="M185,111.1V82.8h12.6c4.9,0,7.9,3,7.9,7.2c0.1,3.1-2,5.8-5,6.5c3,0.5,5.5,3.6,5.5,7c0,4.6-3,7.7-8.2,7.7 L185,111.1z M201.9,90.5c0-2.6-1.7-4.6-4.9-4.6h-8.5V95h8.5C200.2,95.1,201.9,93.1,201.9,90.5L201.9,90.5z M202.5,103.1 c0-2.6-1.8-4.9-5.3-4.9h-8.7v9.8h8.7C200.5,108,202.4,106.1,202.5,103.1L202.5,103.1z"></path> <path class="st0" d="M228.1,111.1l-7.2-11.3h-5.6v11.3h-3.5V82.8h11.4c5.2,0,8.9,3.3,8.9,8.6c0.2,4.3-3,8-7.4,8.2l7.6,11.6 L228.1,111.1L228.1,111.1z M228.3,91.3c0-3.2-2.3-5.4-5.7-5.4h-7.4v10.8h7.4c2.9,0.2,5.5-2,5.7-4.9 C228.3,91.7,228.3,91.5,228.3,91.3z"></path> <path class="st0" d="M237.6,111.1V82.8h18.6V86h-15v9.1H256v3.1h-14.8v9.8h15v3.1H237.6z"></path> <path class="st0" d="M306.8,111.1L296,98.3l-2.9,3.2v9.5h-3.5V82.8h3.5v14.7l12.5-14.7h4.4l-11.8,13.5l12.8,14.9L306.8,111.1z"></path> <path class="st0" d="M315.2,111.1V82.8h18.6V86h-15.1v9.1h14.8v3.1h-14.8v9.8h15v3.1H315.2z"></path> <path class="st0" d="M355.8,111.1l-7.2-11.3H343v11.3h-3.5V82.8h11.4c5.2,0,8.9,3.3,8.9,8.6c0.2,4.3-3,8-7.4,8.2l7.6,11.6 L355.8,111.1L355.8,111.1z M356,91.3c0-3.2-2.3-5.4-5.6-5.4H343v10.8h7.4c2.9,0.2,5.4-2.1,5.6-5C356.1,91.6,356.1,91.5,356,91.3z"></path> <polygon class="st0" points="282,111.1 286,111.1 274.6,82.8 270.2,82.8 258.8,111.1 262.8,111.1 264.9,106.1 264.9,106.1 266.4,101.7 266.4,101.7 266.7,100.9 266.7,100.9 266.7,100.9 272.4,86.4 278.4,101.7 278.4,101.7 280.1,106.5 280.1,106.5 "></polygon> <circle class="st0" cx="272.5" cy="105.5" r="3.4"></circle> </svg> 